<svg xmlns="http://www.w3.org/2000/svg" xmlns:xlink="http://www.w3.org/1999/xlink" width="559pt" height="410pt" viewBox="0.00 0.00 559.36 410.00">
<g id="graph0" class="graph" transform="scale(1 1) rotate(0) translate(4 406)">
<title>LeaderboardFlow</title>
<polygon fill="white" stroke="none" points="-4,4 -4,-406 555.36,-406 555.36,4 -4,4"/>
<!-- User -->
<g id="node1" class="node">
<title>User</title>
<ellipse fill="none" stroke="black" cx="277.81" cy="-384" rx="64.67" ry="18"/>
<text text-anchor="middle" x="277.81" y="-379.8" font-family="Times,serif" font-size="14.00">User/Browser</text>
</g>
<!-- Frontend -->
<g id="node2" class="node">
<title>Frontend</title>
<polygon fill="lightblue" stroke="black" points="331.69,-296.4 223.94,-296.4 223.94,-254.8 331.69,-254.8 331.69,-296.4"/>
<text text-anchor="middle" x="277.81" y="-279.8" font-family="Times,serif" font-size="14.00">Frontend</text>
<text text-anchor="middle" x="277.81" y="-263" font-family="Times,serif" font-size="14.00">(localhost:3001)</text>
</g>
<!-- User&#45;&gt;Frontend -->
<g id="edge1" class="edge">
<title>User-&gt;Frontend</title>
<path fill="none" stroke="black" d="M245.64,-368.06C237.95,-362.85 230.72,-356.21 226.38,-348 219.4,-334.8 219.64,-327.72 226.38,-314.4 228.16,-310.88 230.44,-307.61 233.04,-304.59"/>
<polygon fill="black" stroke="black" points="235.31,-307.27 240.02,-297.78 230.42,-302.26 235.31,-307.27"/>
<text text-anchor="middle" x="267.6" y="-335.4" font-family="Times,serif" font-size="14.00">HTTP GET</text>
<text text-anchor="middle" x="267.6" y="-318.6" font-family="Times,serif" font-size="14.00">localhost:3001</text>
</g>
<!-- Frontend&#45;&gt;User -->
<g id="edge8" class="edge">
<title>Frontend-&gt;User</title>
<path fill="none" stroke="black" d="M298.38,-296.57C302.64,-301.92 306.53,-308.01 308.81,-314.4 313.84,-328.46 314.11,-334.04 308.81,-348 307.56,-351.31 305.83,-354.51 303.83,-357.53"/>
<polygon fill="black" stroke="black" points="301.11,-355.34 297.68,-365.36 306.61,-359.66 301.11,-355.34"/>
<text text-anchor="middle" x="376.62" y="-327" font-family="Times,serif" font-size="14.00">Rendered Leaderboard</text>
</g>
<!-- Backend -->
<g id="node3" class="node">
<title>Backend</title>
<polygon fill="lightgreen" stroke="black" points="331.69,-185.2 223.94,-185.2 223.94,-143.6 331.69,-143.6 331.69,-185.2"/>
<text text-anchor="middle" x="277.81" y="-168.6" font-family="Times,serif" font-size="14.00">Backend</text>
<text text-anchor="middle" x="277.81" y="-151.8" font-family="Times,serif" font-size="14.00">(localhost:4000)</text>
</g>
<!-- Frontend&#45;&gt;Backend -->
<g id="edge2" class="edge">
<title>Frontend-&gt;Backend</title>
<path fill="none" stroke="black" d="M223.64,-259.82C212.92,-254.34 203.01,-246.9 196.57,-236.8 188.54,-224.21 188.54,-215.79 196.57,-203.2 200.99,-196.26 207.06,-190.57 213.91,-185.91"/>
<polygon fill="black" stroke="black" points="215.5,-189.04 222.34,-180.95 211.94,-183.01 215.5,-189.04"/>
<text text-anchor="middle" x="267.69" y="-224.2" font-family="Times,serif" font-size="14.00">Proxied GET</text>
<text text-anchor="middle" x="267.69" y="-207.4" font-family="Times,serif" font-size="14.00">/api/leetcode-leaderboard</text>
</g>
<!-- Backend&#45;&gt;Frontend -->
<g id="edge7" class="edge">
<title>Backend-&gt;Frontend</title>
<path fill="none" stroke="black" d="M322.74,-185.54C329.18,-190.39 334.94,-196.23 338.81,-203.2 346.08,-216.25 346.08,-223.75 338.81,-236.8 336.75,-240.5 334.16,-243.89 331.22,-246.97"/>
<polygon fill="black" stroke="black" points="329.05,-244.22 323.87,-253.46 333.69,-249.47 329.05,-244.22"/>
<text text-anchor="middle" x="398.11" y="-215.8" font-family="Times,serif" font-size="14.00">JSON Leaderboard</text>
</g>
<!-- Leetcode_api -->
<g id="node4" class="node">
<title>Leetcode_api</title>
<polygon fill="lightyellow" stroke="black" points="222.69,-49.4 114.94,-49.4 114.94,-7.8 222.69,-7.8 222.69,-49.4"/>
<text text-anchor="middle" x="168.81" y="-32.8" font-family="Times,serif" font-size="14.00">Leetcode_api</text>
<text text-anchor="middle" x="168.81" y="-16" font-family="Times,serif" font-size="14.00">(localhost:3000)</text>
</g>
<!-- Backend&#45;&gt;Leetcode_api -->
<g id="edge4" class="edge">
<title>Backend-&gt;Leetcode_api</title>
<path fill="none" stroke="black" d="M223.47,-163.75C153.48,-162.9 37.63,-156.68 10.63,-125.6 -4.05,-108.69 -2.83,-93.1 10.63,-75.2 22.17,-59.87 65.11,-48.08 103.34,-40.33"/>
<polygon fill="black" stroke="black" points="103.86,-43.79 113,-38.44 102.52,-36.92 103.86,-43.79"/>
<text text-anchor="middle" x="111.72" y="-113" font-family="Times,serif" font-size="14.00">GET</text>
<text text-anchor="middle" x="111.72" y="-96.2" font-family="Times,serif" font-size="14.00">/userProfile/:username</text>
<text text-anchor="middle" x="111.72" y="-79.4" font-family="Times,serif" font-size="14.00">/userContestRankingInfo/:username</text>
</g>
<!-- Redis -->
<g id="node5" class="node">
<title>Redis</title>
<path fill="lightcoral" stroke="black" d="M440.69,-52C440.69,-54.87 416.54,-57.2 386.81,-57.2 357.08,-57.2 332.94,-54.87 332.94,-52 332.94,-52 332.94,-5.2 332.94,-5.2 332.94,-2.33 357.08,0 386.81,0 416.54,0 440.69,-2.33 440.69,-5.2 440.69,-5.2 440.69,-52 440.69,-52"/>
<path fill="none" stroke="black" d="M440.69,-52C440.69,-49.13 416.54,-46.8 386.81,-46.8 357.08,-46.8 332.94,-49.13 332.94,-52"/>
<text text-anchor="middle" x="386.81" y="-32.8" font-family="Times,serif" font-size="14.00">Redis</text>
<text text-anchor="middle" x="386.81" y="-16" font-family="Times,serif" font-size="14.00">(localhost:6379)</text>
</g>
<!-- Backend&#45;&gt;Redis -->
<g id="edge3" class="edge">
<title>Backend-&gt;Redis</title>
<path fill="none" stroke="black" d="M289.45,-143.16C292.58,-137.52 295.91,-131.37 298.81,-125.6 309.89,-103.63 306.01,-94.13 321.73,-75.2 325.19,-71.04 329.11,-67.09 333.28,-63.37"/>
<polygon fill="black" stroke="black" points="335.44,-66.12 340.93,-57.06 330.99,-60.72 335.44,-66.12"/>
<text text-anchor="middle" x="395.77" y="-104.6" font-family="Times,serif" font-size="14.00">Check Cache</text>
<text text-anchor="middle" x="395.77" y="-87.8" font-family="Times,serif" font-size="14.00">GET leetcodeLeaderboard</text>
</g>
<!-- Leetcode_api&#45;&gt;Backend -->
<g id="edge5" class="edge">
<title>Leetcode_api-&gt;Backend</title>
<path fill="none" stroke="black" d="M191.86,-49.83C199.29,-57.25 207.08,-66.07 212.81,-75.2 225.51,-95.42 217.55,-106.17 231.43,-125.6 233.87,-129.01 236.69,-132.29 239.72,-135.39"/>
<polygon fill="black" stroke="black" points="237.26,-137.88 246.97,-142.11 242.02,-132.75 237.26,-137.88"/>
<text text-anchor="middle" x="263.12" y="-96.2" font-family="Times,serif" font-size="14.00">JSON Data</text>
</g>
<!-- Redis&#45;&gt;Backend -->
<g id="edge6" class="edge">
<title>Redis-&gt;Backend</title>
<path fill="none" stroke="black" d="M441.07,-48.57C452.5,-55.18 463.12,-63.88 469.81,-75.2 481.22,-94.48 484.04,-108.3 469.81,-125.6 453.85,-145.01 392.19,-154.61 343,-159.26"/>
<polygon fill="black" stroke="black" points="342.92,-155.75 333.26,-160.12 343.53,-162.73 342.92,-155.75"/>
<text text-anchor="middle" x="515.41" y="-104.6" font-family="Times,serif" font-size="14.00">Cached Data</text>
<text text-anchor="middle" x="515.41" y="-87.8" font-family="Times,serif" font-size="14.00">(if available)</text>
</g>
</g>
</svg>